# xmcd
#
# Track frame offsets:
#	150
#	8314
#	31252
#	49732
#	65783
#	79925
#	97166
#	111398
#	130225
#	144151
#	159561
#	173625
#	190678
#	204851
#	226988
#	241893
#	261765
#	277252
#
# Disc length: 3937 seconds
#
# Revision: 1
# Processed by: cddbd v1.5.2PL0 Copyright (c) Steve Scherf et al.
# Submitted via: audiograbber 1.83.01
#
DISCID=f20f5f12
DTITLE=Compilation - Super Caribe 3
DYEAR=2001
DGENRE=Salsa
TTITLE0=El Gato - El Gato Voador                  
TTITLE1=Issac Delgado - La Vida Es Un Carnaval
TTITLE2=King Africa  - Comadre Compadre              
TTITLE3=Michael Chacon - Por Um Cafe Por Um Melão
TTITLE4=Sultanes - Decile Que No Lo Quiero       
TTITLE5=Manuel Paz - Mala Mujer               
TTITLE6=Kriss - Ven Conmigo
TTITLE7=Inocentes MC - Fin De Semana
TTITLE8=Istambul - Mentirosa
TTITLE9=Chocolate 2000 - Besame Suavemente
TTITLE10=Los Satanes - Perfidia
TTITLE11=Las Gitanas - Me Pongo Colorada
TTITLE12=Manolo Aguirre - Tu Calorro
TTITLE13=Guajiro - Sol and Luna         
TTITLE14=Noelia and Gloria - Esta Vida Nueva
TTITLE15=Patricia - Regressa A Mi  
TTITLE16=Lady Lu - Everybody Dance
TTITLE17=Melodia Italiana - Fuoco Nel Fuoco
EXTD=YEAR: 201
EXTT0=
EXTT1=
EXTT2=
EXTT3=
EXTT4=
EXTT5=
EXTT6=
EXTT7=
EXTT8=
EXTT9=
EXTT10=
EXTT11=
EXTT12=
EXTT13=
EXTT14=
EXTT15=
EXTT16=
EXTT17=
PLAYORDER=
